PathFileType	4	(x/y/z)	S06_M20_T22
DataRate	CameraRate	NumFrames	NumMarkers	Units	OrigDataRate	OrigDataStartFrame	OrigNumFrames
240	240	10	51	mm	240	256	511
Frame#	Time	Sternum			R.Acromium			L.Acromium			Top.Head			R.ASIS			L.ASIS			R.PSIS			L.PSIS			R.Great.Tro			L.Great.Tro			R.Iliac.Crest			L.Iliac.Crest			V.Sacral			R.Thigh.Upper.Post			R.Thigh.Lower.Ant			R.Thigh.Lower.Post			R.Thigh.Upper.Ant			R.Knee.Lat			R.Knee.Med			R.Shank.Upper.Post			R.Shank.Lower.Ant			R.Shank.Lower.Post			R.Shank.Upper.Ant			R.Ankle.Lat			R.Ankle.Med			R.Heel.Upper			R.Heel.Med			R.Heel.Lat			R.Toe.Lat			R.Toe.Med			R.Toe.Tip			L.Thigh.Upper.Post			L.Thigh.Lower.Ant			L.Thigh.Lower.Post			L.Thigh.Upper.Ant			L.Knee.Lat			L.Knee.Med			L.Shank.Upper.Post			L.Shank.Lower.Ant			L.Shank.Lower.Post			L.Shank.Upper.Ant			L.Ankle.Lat			L.Ankle.Med			L.Heel.Upper			L.Heel.Med			L.Heel.Lat			L.Toe.Lat			L.Toe.Med			L.Toe.Tip			Cervical.Spine			Back			
		X1	Y1	Z1	X2	Y2	Z2	X3	Y3	Z3	X4	Y4	Z4	X5	Y5	Z5	X6	Y6	Z6	X7	Y7	Z7	X8	Y8	Z8	X9	Y9	Z9	X10	Y10	Z10	X11	Y11	Z11	X12	Y12	Z12	X13	Y13	Z13	X14	Y14	Z14	X15	Y15	Z15	X16	Y16	Z16	X17	Y17	Z17	X18	Y18	Z18	X19	Y19	Z19	X20	Y20	Z20	X21	Y21	Z21	X22	Y22	Z22	X23	Y23	Z23	X24	Y24	Z24	X25	Y25	Z25	X26	Y26	Z26	X27	Y27	Z27	X28	Y28	Z28	X29	Y29	Z29	X30	Y30	Z30	X31	Y31	Z31	X32	Y32	Z32	X33	Y33	Z33	X34	Y34	Z34	X35	Y35	Z35	X36	Y36	Z36	X37	Y37	Z37	X38	Y38	Z38	X39	Y39	Z39	X40	Y40	Z40	X41	Y41	Z41	X42	Y42	Z42	X43	Y43	Z43	X44	Y44	Z44	X45	Y45	Z45	X46	Y46	Z46	X47	Y47	Z47	X48	Y48	Z48	X49	Y49	Z49	X50	Y50	Z50	X51	Y51	Z51	

256	1.0625	-203.81	1296.7	323.54	-322.03	1501.5	497.74	-355.16	1499.1	148.57	-287.46	1815.1	317.53	-245.57	1063.1	455.99	-236.17	1059.5	200.54	NaN	NaN	NaN	-441.66	1073.4	275.78	-308.83	988.03	501.11	-319.15	977.69	147.08	-333.79	1133.2	483.63	-311.89	1126.4	161.77	-453.83	1038.5	320.62	-335.27	739.82	473.93	-289.7	655.84	437.06	-357.29	656.02	452.03	-263.45	740.83	457.78	-356.39	541.64	432.11	-350.92	553.02	304.13	-435.74	320.6	414.64	-384.86	250.61	391	-450.38	246.57	394.43	-371.09	323.69	410.71	-439.39	114.33	361.69	-420.06	123.3	279.17	-506.26	80.018	309.31	-497.88	47.289	281.17	-501.55	49.931	345.67	-327.22	37.348	396.47	-296.15	39.448	276.4	-231.19	49.198	325.73	-150.07	758.96	168.25	-80.542	700.72	231.34	-133.5	669.63	181.03	-104.95	791.63	215.01	-126.38	578.63	192.9	-107.46	580.26	314.52	-205.01	367.63	183.93	-151.15	297.23	178.01	-220.79	296.33	194.42	-139.13	367.26	173.51	-196.47	149.72	179.46	-178.64	161.18	270.25	-276.56	109.72	224.44	-271.68	78.728	253.52	-271.47	87.187	192.1	-94.802	70.801	148.91	-73.552	63.072	265.36	-2.6667	79.59	211.59	-391.02	1551.6	326.95	-446.4	1277	327.66
257	1.0667	-199.01	1296.1	323.53	-317.09	1501	497.64	-350.17	1498.6	148.48	-282.52	1814.6	317.35	-241.04	1062.5	456.05	-231.49	1059	200.59	NaN	NaN	NaN	-437.03	1073.1	275.76	-304.56	987.54	501.17	-314.48	977.32	147.07	-329.24	1132.7	483.63	-307.21	1126	161.79	-449.22	1038.2	320.57	-332.69	739.56	473.96	-287.63	655.34	437.06	-355.19	655.92	452.06	-260.89	740.24	457.81	-355.09	541.51	432.1	-349.6	552.88	304.12	-435.16	320.75	414.58	-384.45	250.62	391	-449.98	246.77	394.38	-370.43	323.67	410.74	-439.27	114.43	361.61	-419.86	123.36	279.1	-506.19	80.058	309.25	-497.78	47.335	281.16	-501.53	50.015	345.61	-327.23	37.357	396.47	-296.12	39.377	276.42	-231.18	49.185	325.74	-145.52	758.7	168.46	-75.919	700.58	231.57	-128.79	669.41	181.22	-100.51	791.43	215.3	-120.89	578.38	193.04	-102.31	580.26	314.68	-194.81	365.43	184.42	-139.31	296.28	178.93	-208.97	293.81	195.09	-128.9	366.56	174.18	-181.07	147.64	180.72	-163.74	159.93	271.65	-260.46	105.81	225.55	-254.79	75.077	254.85	-254.58	83.157	193.39	-77.386	71.08	150.99	-56.392	64.654	267.55	14.222	82.65	213.94	-386.02	1551.2	326.83	-441.63	1276.6	327.61
258	1.0708	-194.21	1295.5	323.51	-312.13	1500.6	497.54	-345.19	1498	148.38	-277.57	1814.1	317.16	-236.5	1061.9	456.12	-226.81	1058.5	200.65	NaN	NaN	NaN	-432.38	1072.8	275.75	-300.28	987.03	501.23	-309.83	976.91	147.06	-324.68	1132.3	483.63	-302.51	1125.5	161.82	-444.6	1037.9	320.53	-330.1	739.29	474.01	-285.54	654.83	437.07	-353.07	655.81	452.1	-258.33	739.62	457.85	-353.76	541.37	432.09	-348.26	552.72	304.12	-434.57	320.9	414.53	-384.04	250.62	390.99	-449.57	246.97	394.32	-369.75	323.63	410.77	-439.14	114.53	361.54	-419.67	123.41	279.04	-506.12	80.101	309.19	-497.68	47.381	281.14	-501.51	50.099	345.55	-327.24	37.377	396.47	-296.08	39.307	276.45	-231.17	49.167	325.75	-141.03	758.36	168.62	-71.384	700.33	231.76	-124.17	669.11	181.35	-96.139	791.15	215.55	-115.49	578.05	193.16	-97.257	580.19	314.81	-184.65	363.26	184.93	-127.54	295.39	179.86	-197.19	291.37	195.78	-118.74	365.9	174.87	-165.73	145.7	182.03	-148.93	158.84	273.08	-244.35	102.08	226.73	-237.93	71.638	256.24	-237.68	79.314	194.75	-60.061	71.541	153.17	-39.406	66.462	269.85	30.92	85.91	216.4	-381.02	1550.7	326.7	-436.85	1276.2	327.55
259	1.075	-189.4	1294.9	323.49	-307.18	1500.1	497.42	-340.19	1497.4	148.28	-272.62	1813.6	316.97	-231.93	1061.2	456.18	-222.13	1058	200.71	NaN	NaN	NaN	-427.73	1072.4	275.74	-295.98	986.49	501.3	-305.18	976.46	147.05	-320.09	1131.8	483.63	-297.81	1125	161.84	-439.96	1037.5	320.5	-327.49	739.01	474.08	-283.43	654.3	437.09	-350.95	655.69	452.14	-255.75	738.99	457.89	-352.42	541.22	432.09	-346.89	552.56	304.13	-433.97	321.05	414.47	-383.62	250.63	390.97	-449.15	247.18	394.26	-369.06	323.59	410.81	-439.01	114.63	361.46	-419.49	123.47	278.97	-506.06	80.148	309.12	-497.59	47.428	281.11	-501.49	50.184	345.49	-327.26	37.407	396.49	-296.04	39.236	276.47	-231.15	49.145	325.76	-136.61	757.94	168.72	-66.931	700	231.91	-119.63	668.72	181.43	-91.838	790.77	215.75	-110.18	577.64	193.25	-92.304	580.04	314.92	-174.54	361.12	185.44	-115.85	294.57	180.82	-185.46	288.99	196.49	-108.67	365.25	175.58	-150.44	143.92	183.39	-134.22	157.91	274.53	-228.24	98.522	227.95	-221.1	68.415	257.71	-220.78	75.662	196.17	-42.843	72.184	155.44	-22.606	68.498	272.22	47.414	89.369	218.94	-376.01	1550.2	326.57	-432.08	1275.8	327.49
260	1.0792	-184.58	1294.3	323.47	-302.21	1499.6	497.3	-335.19	1496.7	148.17	-267.66	1813.1	316.77	-227.36	1060.5	456.25	-217.45	1057.4	200.78	NaN	NaN	NaN	-423.06	1072	275.73	-291.67	985.93	501.37	-300.53	975.98	147.04	-315.48	1131.3	483.64	-293.1	1124.4	161.86	-435.32	1037.1	320.47	-324.88	738.71	474.15	-281.31	653.75	437.13	-348.81	655.55	452.19	-253.17	738.33	457.92	-351.05	541.07	432.1	-345.49	552.39	304.13	-433.35	321.21	414.43	-383.2	250.62	390.94	-448.73	247.38	394.2	-368.35	323.54	410.85	-438.88	114.73	361.38	-419.31	123.54	278.89	-506.01	80.199	309.05	-497.52	47.477	281.07	-501.47	50.27	345.42	-327.28	37.444	396.51	-295.99	39.166	276.5	-231.14	49.117	325.76	-132.25	757.43	168.77	-62.558	699.56	232.01	-115.18	668.24	181.47	-87.601	790.3	215.9	-104.96	577.16	193.32	-87.447	579.81	315.02	-164.48	359.01	185.98	-104.25	293.82	181.8	-173.78	286.69	197.23	-98.689	364.63	176.29	-135.22	142.28	184.79	-119.63	157.13	276.02	-212.16	95.145	229.22	-204.32	65.412	259.23	-203.9	72.203	197.67	-25.746	73.007	157.79	-6.0047	70.761	274.67	63.69	93.025	221.55	-371	1549.7	326.44	-427.29	1275.3	327.43
261	1.0833	-179.76	1293.6	323.44	-297.24	1499.1	497.18	-330.19	1496.1	148.06	-262.68	1812.5	316.58	-222.77	1059.8	456.32	-212.76	1056.7	200.85	NaN	NaN	NaN	-418.38	1071.6	275.73	-287.34	985.33	501.45	-295.9	975.47	147.02	-310.85	1130.8	483.64	-288.38	1123.8	161.88	-430.67	1036.6	320.46	-322.25	738.39	474.24	-279.18	653.2	437.19	-346.65	655.4	452.24	-250.58	737.65	457.95	-349.66	540.91	432.11	-344.05	552.21	304.14	-432.71	321.36	414.38	-382.78	250.61	390.91	-448.29	247.59	394.13	-367.62	323.49	410.89	-438.75	114.83	361.3	-419.13	123.6	278.81	-505.96	80.256	308.97	-497.45	47.528	281.02	-501.45	50.358	345.35	-327.29	37.486	396.54	-295.94	39.097	276.52	-231.12	49.083	325.77	-127.95	756.85	168.77	-58.259	699.04	232.06	-110.8	667.69	181.46	-83.424	789.75	216.01	-99.829	576.6	193.38	-82.68	579.51	315.1	-154.49	356.94	186.53	-92.766	293.14	182.79	-162.17	284.47	198	-88.812	364.05	177.01	-120.08	140.79	186.23	-105.16	156.51	277.52	-196.1	91.952	230.54	-187.6	62.63	260.82	-187.05	68.941	199.22	-8.786	74.009	160.22	10.387	73.25	277.18	79.735	96.874	224.21	-365.98	1549.2	326.3	-422.5	1274.9	327.36
262	1.0875	-174.93	1292.9	323.4	-292.26	1498.5	497.05	-325.18	1495.4	147.94	-257.7	1811.9	316.38	-218.17	1059.1	456.39	-208.07	1056.1	200.91	NaN	NaN	NaN	-413.69	1071.1	275.73	-283	984.72	501.52	-291.27	974.92	147	-306.2	1130.2	483.65	-283.66	1123.2	161.9	-426.01	1036.1	320.45	-319.59	738.06	474.35	-277.02	652.63	437.25	-344.47	655.24	452.29	-247.98	736.95	457.98	-348.24	540.75	432.12	-342.57	552.02	304.14	-432.05	321.51	414.33	-382.34	250.59	390.87	-447.84	247.79	394.06	-366.88	323.43	410.93	-438.61	114.93	361.22	-418.96	123.67	278.73	-505.91	80.318	308.88	-497.38	47.582	280.96	-501.43	50.449	345.27	-327.31	37.53	396.57	-295.89	39.03	276.55	-231.1	49.042	325.78	-123.69	756.18	168.72	-54.032	698.43	232.09	-106.49	667.05	181.41	-79.299	789.11	216.06	-94.792	575.96	193.42	-78	579.14	315.16	-144.58	354.92	187.11	-81.392	292.53	183.79	-150.64	282.33	198.81	-79.047	363.49	177.75	-105.05	139.46	187.7	-90.807	156.05	279.03	-180.09	88.946	231.91	-170.96	60.072	262.47	-170.25	65.876	200.85	8.021	75.187	162.7	26.557	75.961	279.72	95.537	100.91	226.9	-360.96	1548.6	326.16	-417.71	1274.4	327.3
263	1.0917	-170.1	1292.2	323.36	-287.28	1497.9	496.91	-320.17	1494.7	147.81	-252.72	1811.2	316.17	-213.55	1058.3	456.45	-203.38	1055.4	200.98	NaN	NaN	NaN	-408.99	1070.6	275.74	-278.65	984.08	501.6	-286.65	974.33	146.98	-301.53	1129.6	483.66	-278.93	1122.6	161.92	-421.33	1035.6	320.45	-316.92	737.72	474.46	-274.83	652.04	437.33	-342.26	655.06	452.34	-245.36	736.22	458.01	-346.79	540.57	432.13	-341.04	551.82	304.15	-431.37	321.67	414.29	-381.89	250.56	390.82	-447.37	247.99	393.98	-366.11	323.36	410.95	-438.47	115.04	361.13	-418.78	123.75	278.65	-505.87	80.388	308.79	-497.33	47.64	280.89	-501.41	50.545	345.2	-327.32	37.574	396.6	-295.84	38.965	276.57	-231.08	48.993	325.79	-119.48	755.44	168.62	-49.871	697.73	232.08	-102.24	666.34	181.32	-75.22	788.39	216.08	-89.846	575.26	193.46	-73.402	578.7	315.23	-134.75	352.95	187.7	-70.144	292	184.8	-139.2	280.27	199.64	-69.404	362.97	178.49	-90.126	138.28	189.2	-76.593	155.74	280.56	-164.13	86.128	233.32	-154.4	57.737	264.17	-153.51	63.011	202.53	24.659	76.54	165.23	42.495	78.888	282.3	111.08	105.14	229.6	-355.93	1548	326.01	-412.9	1273.8	327.23
264	1.0958	-165.25	1291.4	323.31	-282.29	1497.3	496.77	-315.15	1493.9	147.68	-247.72	1810.5	315.97	-208.92	1057.5	456.52	-198.69	1054.7	201.05	NaN	NaN	NaN	-404.28	1070	275.74	-274.28	983.41	501.69	-282.03	973.71	146.95	-296.84	1129	483.67	-274.19	1121.9	161.93	-416.65	1035.1	320.45	-314.22	737.36	474.58	-272.62	651.45	437.42	-340.03	654.87	452.4	-242.72	735.47	458.03	-345.3	540.39	432.15	-339.47	551.61	304.15	-430.65	321.83	414.24	-381.42	250.52	390.76	-446.88	248.2	393.9	-365.33	323.28	410.98	-438.32	115.14	361.04	-418.6	123.82	278.56	-505.82	80.464	308.69	-497.27	47.703	280.8	-501.38	50.646	345.11	-327.34	37.617	396.63	-295.79	38.901	276.58	-231.05	48.937	325.8	-115.31	754.63	168.48	-45.771	696.95	232.04	-98.06	665.54	181.21	-71.182	787.59	216.05	-84.992	574.48	193.51	-68.878	578.19	315.28	-125.02	351.02	188.33	-59.032	291.54	185.81	-127.86	278.3	200.51	-59.891	362.49	179.24	-75.331	137.26	190.72	-62.519	155.58	282.1	-148.24	83.5	234.78	-137.94	55.627	265.92	-136.84	60.346	204.28	41.111	78.064	167.79	58.191	82.027	284.88	126.36	109.54	232.29	-350.9	1547.4	325.86	-408.09	1273.2	327.17
265	1.1	-160.39	1290.6	323.26	-277.29	1496.6	496.62	-310.13	1493.2	147.54	-242.71	1809.8	315.76	-204.28	1056.7	456.59	-193.99	1053.9	201.12	NaN	NaN	NaN	-399.57	1069.4	275.76	-269.91	982.72	501.77	-277.42	973.05	146.91	-292.12	1128.3	483.69	-269.44	1121.2	161.95	-411.96	1034.5	320.46	-311.5	736.99	474.7	-270.37	650.84	437.52	-337.77	654.66	452.44	-240.06	734.69	458.06	-343.77	540.2	432.16	-337.84	551.38	304.15	-429.91	321.99	414.2	-380.93	250.48	390.7	-446.37	248.4	393.8	-364.51	323.2	410.99	-438.17	115.25	360.95	-418.42	123.91	278.46	-505.78	80.55	308.58	-497.21	47.772	280.71	-501.35	50.754	345.02	-327.35	37.658	396.65	-295.74	38.84	276.59	-231.03	48.873	325.81	-111.17	753.75	168.3	-41.728	696.09	231.98	-93.937	664.68	181.07	-67.177	786.71	215.99	-80.231	573.64	193.55	-64.425	577.63	315.35	-115.4	349.14	188.99	-48.067	291.16	186.82	-116.62	276.42	201.42	-50.517	362.04	180	-60.676	136.38	192.25	-48.594	155.57	283.63	-132.43	81.063	236.27	-121.59	53.739	267.72	-120.27	57.881	206.08	57.36	79.757	170.35	73.634	85.368	287.45	141.36	114.1	234.94	-345.86	1546.7	325.7	-403.27	1272.6	327.1
